PathFileType	4	(X/Y/Z)	C:/Users/opensim2020/Desktop/walking_exp_matlab/subject02_walking06_static.trc	
DataRate	CameraRate	NumFrames	NumMarkers	Units	OrigDataRate	OrigDataStartFrame	OrigNumFrames	
100.00	100.00	8	41	mm	100.00	36	287	
Frame#	Time	LFHD			RFHD			LBHD			RBHD			C7			T10			CLAV			STRN			RBAK			LSHO			LUPA			LELB			LFRM			LWRA			LWRB			LFIN			RSHO			RUPA			RELB			RFRM			RWRA			RWRB			RFIN			LASI			RASI			LPSI			RPSI			LTHI			LKNE			LTIB			LANK			LHEE			LTOE			RTHI			RKNE			RTIB			RANK			RHEE			RTOE			*39			*40			
		X1	Y1	Z1	X2	Y2	Z2	X3	Y3	Z3	X4	Y4	Z4	X5	Y5	Z5	X6	Y6	Z6	X7	Y7	Z7	X8	Y8	Z8	X9	Y9	Z9	X10	Y10	Z10	X11	Y11	Z11	X12	Y12	Z12	X13	Y13	Z13	X14	Y14	Z14	X15	Y15	Z15	X16	Y16	Z16	X17	Y17	Z17	X18	Y18	Z18	X19	Y19	Z19	X20	Y20	Z20	X21	Y21	Z21	X22	Y22	Z22	X23	Y23	Z23	X24	Y24	Z24	X25	Y25	Z25	X26	Y26	Z26	X27	Y27	Z27	X28	Y28	Z28	X29	Y29	Z29	X30	Y30	Z30	X31	Y31	Z31	X32	Y32	Z32	X33	Y33	Z33	X34	Y34	Z34	X35	Y35	Z35	X36	Y36	Z36	X37	Y37	Z37	X38	Y38	Z38	X39	Y39	Z39	X40	Y40	Z40	X41	Y41	Z41	

36	0.350	-17.32526	-692.80939	1751.66187	-3.25941	-551.12756	1732.83228	104.93108	-715.85217	1665.83411	131.63225	-576.10419	1644.75793	151.92786	-641.27789	1525.04968	191.64113	-635.92798	1247.93079	1.37731	-650.57257	1475.41577	-63.75374	-640.80872	1309.71594	188.03589	-563.27576	1351.51917	52.80124	-817.86804	1515.24707	46.79028	-923.32166	1331.22717	58.60506	-951.12689	1191.23828	45.41058	-965.44830	1056.07556	-1.88130	-924.21387	931.16302	37.50310	-965.30402	932.86523	16.46756	-965.98602	870.07605	49.77253	-460.38766	1516.01233	48.04035	-342.78262	1349.07410	27.82228	-309.75409	1201.21033	-10.76640	-302.88953	1083.09753	-52.21784	-339.51898	958.73578	-23.03093	-292.36075	952.93274	-62.66503	-304.77762	894.04065	-40.00740	-758.98608	993.99915	-31.64486	-508.70035	985.88635	171.52805	-689.64325	1028.78040	180.03618	-574.67780	1030.20667	36.26568	-840.24622	686.25732	71.90938	-828.09149	484.86203	126.71911	-851.94171	299.78610	116.19859	-847.10858	72.39236	151.60091	-801.24377	40.88330	-42.83427	-860.35767	30.98841	57.82948	-415.78653	683.00763	59.39787	-432.46021	471.60565	111.09194	-404.37454	292.30127	133.53030	-415.32986	97.03170	166.35066	-465.34448	37.66497	-15.55872	-379.75275	37.86876	99.52539	-615.74585	1808.31030	-3357.35864	2845.90405	1034.06348 
37	0.360	-17.28819	-692.84167	1751.63831	-3.21812	-551.15491	1732.88123	104.93612	-715.88977	1665.79712	131.62886	-576.13049	1644.74475	151.90065	-641.41602	1525.11597	191.73051	-635.87939	1247.96436	1.38267	-650.47974	1475.31824	-63.70553	-640.60944	1309.71326	188.13625	-563.26300	1351.62512	52.34776	-817.70422	1515.17505	45.85512	-922.94971	1331.24854	57.93241	-951.08453	1191.29504	44.83536	-965.36084	1056.10144	-1.90188	-923.86438	931.05243	37.21438	-965.18805	932.94379	16.52377	-965.62433	869.88562	49.81605	-460.37341	1515.99744	48.41074	-342.67117	1349.10278	27.95056	-309.19247	1201.28760	-10.43071	-302.57822	1083.13818	-51.84285	-339.29752	958.78973	-22.59840	-291.97348	952.91663	-62.33502	-304.51019	894.08685	-39.90598	-758.98737	994.02423	-31.63931	-508.72327	985.88617	171.63724	-689.59442	1028.74487	180.07932	-574.61841	1030.17908	36.30928	-840.20081	686.26459	71.88448	-828.11768	484.83942	126.67540	-851.95227	299.77060	116.17427	-847.12134	72.39951	151.59465	-801.25787	40.86908	-42.85810	-860.38110	30.99957	57.76566	-415.78015	683.04938	59.26440	-432.64621	471.63150	111.06914	-404.40146	292.30322	133.53337	-415.34558	97.03195	166.34579	-465.38394	37.71247	-15.56055	-379.77057	37.84741	99.61021	-615.85590	1808.31812	-3357.53418	2845.88257	1033.96155 
38	0.370	-17.26854	-692.86786	1751.63171	-3.05409	-551.18866	1732.92334	104.91866	-715.95386	1665.72717	131.69328	-576.21606	1644.72522	151.86745	-641.50140	1525.19568	191.82335	-635.85901	1247.98376	1.39563	-650.37390	1475.21484	-63.62770	-640.41553	1309.69397	188.22093	-563.30957	1351.64673	51.98277	-817.53040	1515.05139	45.30140	-922.90997	1331.44202	57.34821	-951.18414	1191.43701	44.25913	-965.33466	1056.24316	-1.95370	-923.49780	931.07312	36.75212	-965.14191	933.03394	16.40408	-965.20886	869.81256	49.87709	-460.34467	1515.95862	48.60415	-342.65198	1349.13904	28.32073	-308.87311	1201.37964	-10.08190	-302.22928	1083.23157	-51.64156	-338.85434	958.91669	-22.19943	-291.35751	953.19214	-62.00431	-304.11060	894.17126	-39.80197	-758.98529	994.05640	-31.64513	-508.74094	985.87970	171.72694	-689.45905	1028.69580	180.10800	-574.50366	1030.15088	36.38591	-840.15039	686.31494	71.87881	-828.10046	484.79947	126.68241	-851.95532	299.75513	116.21299	-847.16742	72.40980	151.59673	-801.26349	40.90958	-42.82629	-860.38037	30.97619	57.48841	-416.23734	682.80658	59.36437	-432.46973	471.63974	111.06907	-404.40479	292.27237	133.56030	-415.36786	96.99616	166.41481	-465.34280	37.67136	-15.56110	-379.76544	37.87387	99.66388	-615.94006	1808.31165	-3360.33496	2845.24805	1033.97168 
39	0.380	-17.25670	-692.88690	1751.63245	-3.06133	-551.19324	1732.97095	104.87965	-716.00769	1665.66797	131.71901	-576.20514	1644.70496	151.81522	-641.56848	1525.24597	191.88078	-635.85864	1248.02502	1.39142	-650.28467	1475.15918	-63.57285	-640.20941	1309.66467	188.30554	-563.36444	1351.72241	51.64698	-817.42468	1515.12939	45.00969	-923.02264	1331.60059	56.83436	-951.43231	1191.62793	43.70869	-965.42352	1056.40564	-1.97894	-923.01917	931.14270	36.39432	-965.01837	933.21967	16.05408	-964.75690	869.85303	49.94560	-460.34216	1515.93530	49.73046	-342.19571	1349.44360	28.91544	-308.85651	1201.47559	-9.72598	-301.89716	1083.29810	-51.23332	-338.46988	959.00641	-21.76936	-291.00537	953.26312	-61.62411	-303.61209	894.27930	-39.68014	-758.98779	994.08459	-31.63533	-508.75168	985.86243	171.84520	-689.34283	1028.65112	180.14456	-574.42291	1030.14453	36.47735	-840.04346	686.29993	71.86562	-828.08923	484.76300	126.68317	-851.97754	299.76657	116.19340	-847.10138	72.38218	151.59106	-801.26801	40.91009	-42.82582	-860.38165	30.98699	57.73714	-415.74387	682.95111	59.20906	-432.57718	471.62222	111.06615	-404.37671	292.25803	133.53656	-415.34970	96.99154	166.35449	-465.36588	37.67624	-15.54505	-379.76688	37.86687	99.78413	-616.10510	1808.30115	-3360.33496	2845.27686	1033.90417 
40	0.390	-17.28397	-692.89569	1751.63953	-2.85234	-551.20911	1733.03186	104.82972	-716.02051	1665.59753	131.76358	-576.25592	1644.73181	151.76170	-641.64648	1525.28687	191.91751	-635.91321	1248.06274	1.38009	-650.18237	1475.09692	-63.54295	-640.03015	1309.66528	188.37675	-563.48718	1351.82422	51.39492	-817.31055	1515.15967	44.95144	-923.39514	1331.94714	56.38985	-951.80341	1191.87561	43.14897	-966.06110	1056.75000	-2.08215	-922.69434	931.35992	35.79974	-965.07245	933.36743	15.48150	-964.60138	870.08752	50.11136	-460.30795	1515.95117	49.62077	-342.52307	1349.35168	29.25519	-308.53793	1201.59497	-9.28404	-301.52280	1083.35815	-51.02378	-337.96375	959.21790	-21.36861	-290.90146	953.40631	-61.20224	-303.04044	894.45941	-39.56401	-759.00964	994.10510	-31.58457	-508.77786	985.85052	171.95667	-689.22333	1028.65283	180.19312	-574.30035	1030.14185	36.58825	-840.00793	686.35376	71.80328	-828.08368	484.72736	126.67112	-851.96051	299.75510	116.20312	-847.12238	72.37035	151.61839	-801.24817	40.86654	-42.83243	-860.39026	30.99866	57.71752	-415.66827	682.96368	59.32648	-432.37109	471.58566	111.07095	-404.34955	292.27109	133.55882	-415.37012	96.99419	166.42111	-465.31741	37.65585	-15.54314	-379.78134	37.84143	99.79826	-616.13910	1808.27112	-3360.30225	2845.22852	1033.81201 
41	0.400	-17.30813	-692.90228	1751.64722	-2.86176	-551.21179	1733.08667	104.75857	-716.09686	1665.55493	131.70790	-576.29541	1644.69592	151.75964	-641.68243	1525.25098	191.96082	-636.01678	1248.08606	1.36614	-650.11121	1475.06348	-63.53755	-639.89331	1309.68311	188.49887	-563.42340	1351.79553	51.21328	-817.21393	1515.18799	45.04276	-923.69220	1332.28369	56.05954	-952.19910	1192.12585	42.78052	-965.72906	1056.79199	-2.25743	-922.47626	931.67792	35.31566	-965.14600	933.56671	14.78354	-964.33441	870.27393	50.18689	-460.29355	1515.95239	50.13401	-342.39609	1349.49805	29.38082	-308.00397	1201.75989	-8.90080	-301.11359	1083.56799	-50.65918	-337.50034	959.33118	-20.97922	-290.00702	953.74921	-60.86434	-302.47433	894.62878	-39.46893	-759.00250	994.14783	-31.53316	-508.78360	985.84839	172.05730	-689.10809	1028.62866	180.26564	-574.20032	1030.14221	36.68630	-839.89990	686.37634	71.74479	-828.06537	484.68716	126.66183	-851.97308	299.73233	116.19315	-847.11981	72.36682	151.61293	-801.27643	40.88136	-42.79823	-860.37311	30.97168	57.72315	-415.61337	682.93433	59.25120	-432.50198	471.56866	111.05769	-404.32343	292.24640	133.55447	-415.36835	97.00258	166.35121	-465.33746	37.65587	-15.53183	-379.76236	37.84359	99.82133	-616.47351	1808.28625	-3360.38940	2845.34692	1033.70520 
42	0.410	-17.33632	-692.90735	1751.67493	-2.79159	-551.20850	1733.14258	104.69209	-716.13965	1665.54480	131.67949	-576.32794	1644.66858	151.74966	-641.71338	1525.20447	191.96863	-636.08582	1248.10217	1.35304	-650.02490	1475.05078	-63.48536	-639.75385	1309.65894	188.55240	-563.67749	1351.83362	51.13253	-817.13080	1515.24561	45.25663	-923.89441	1332.67126	55.81178	-952.67108	1192.45984	42.36919	-966.07770	1057.11548	-2.52631	-922.36749	932.08105	34.77533	-965.23975	933.77295	14.19501	-963.97864	870.48016	50.27622	-460.28329	1515.97266	50.71865	-341.89514	1349.72559	29.65973	-307.69125	1201.94214	-8.35119	-300.66205	1083.95288	-50.26057	-337.01019	959.41461	-20.55272	-289.52847	953.83203	-60.46771	-301.86130	894.78638	-39.38734	-758.99042	994.17114	-31.44007	-508.73508	985.88257	172.13869	-689.01300	1028.63000	180.31503	-574.13055	1030.14612	36.80453	-839.42120	686.29883	71.68510	-828.03748	484.64862	126.56390	-851.86859	299.68631	116.19952	-847.12598	72.38884	151.61894	-801.26050	40.88324	-42.82103	-860.36646	30.98249	57.75655	-415.57117	682.95386	59.25977	-432.43408	471.55853	111.09046	-404.34216	292.21188	133.58031	-415.35751	96.96486	166.40782	-465.33597	37.65567	-15.54644	-379.75049	37.86350	99.85023	-616.54663	1808.28198	-3360.21265	2845.10840	1033.98206 
43	0.420	-17.39557	-692.91302	1751.69446	-2.74561	-551.18359	1733.17810	104.59900	-716.17603	1665.50684	131.73048	-576.39471	1644.71033	151.77016	-641.76428	1525.18713	191.98779	-636.19012	1248.13501	1.34289	-650.00427	1475.01404	-63.45881	-639.69019	1309.62903	188.46663	-564.00458	1351.63208	51.10499	-817.07922	1515.30603	45.30172	-924.21619	1333.02075	55.58090	-953.22278	1192.76501	42.02678	-966.31122	1057.24976	-2.79949	-922.37836	932.41541	34.20015	-965.43195	934.00604	13.58530	-963.90222	870.81744	50.38113	-460.30701	1515.97522	50.83037	-342.28787	1349.72070	30.23250	-307.68533	1202.05896	-8.15196	-300.36783	1083.86804	-49.89277	-336.48422	959.40521	-20.08416	-288.88669	954.00409	-60.13723	-301.22086	894.92639	-39.32178	-758.93903	994.15710	-31.33027	-508.64194	985.87347	172.19659	-688.92542	1028.65967	180.39729	-574.06268	1030.17786	36.84731	-839.32745	686.29718	71.60172	-828.01831	484.61386	126.48438	-851.81787	299.62912	116.18442	-847.33563	72.50819	151.57817	-801.24994	40.85971	-42.82200	-860.38599	30.99462	57.85235	-415.53024	682.95526	59.30311	-432.40515	471.58969	111.09396	-404.26892	292.22525	133.60762	-415.33066	96.98428	166.37044	-465.30542	37.63325	-15.53338	-379.73196	37.85833	99.88577	-616.62872	1808.28149	-3360.23071	2845.13184	1033.91895 
